<svg xmlns="http://www.w3.org/2000/svg" xmlns:xlink="http://www.w3.org/1999/xlink" version="1.1" x="0px" y="0px" viewBox="0 0 100 100" enable-background="new 0 0 100 100" xml:space="preserve"><path fill-rule="evenodd" clip-rule="evenodd" d="M91.699,37.95c-0.566-0.533-1.432-0.8-2.6-0.8H10.801  c-1.135,0-1.967,0.267-2.5,0.8S7.5,39.316,7.5,40.45V64.9c0,1.2,0.268,2.083,0.801,2.65c0.533,0.533,1.365,0.8,2.5,0.8h16.25  l1.299-4.75c0.066-0.267,0.234-0.467,0.5-0.6c0.234-0.133,0.484-0.167,0.75-0.1l0.201,0.1c0.166-0.1,0.332-0.15,0.5-0.15l38.049-0.5  c0.5,0,0.834,0.233,1,0.7l1.551,5.3H89.1c2.268,0,3.4-1.15,3.4-3.45V40.45C92.5,39.316,92.234,38.483,91.699,37.95z M94.5,40.45  V64.9c0,1.733-0.467,3.083-1.4,4.05c-0.934,0.933-2.266,1.4-4,1.4H86v3.35c0,1.7-0.467,3.017-1.4,3.95  c-0.934,0.899-2.266,1.35-4,1.35h-6.65L77.25,90.6c0.066,0.333,0,0.616-0.199,0.85c-0.168,0.267-0.434,0.4-0.801,0.4h-54.4  c-0.332,0-0.582-0.134-0.75-0.4c-0.199-0.233-0.266-0.517-0.199-0.85L24.1,79H15.4c-1.701,0-3.018-0.45-3.951-1.35  c-0.932-0.934-1.398-2.25-1.398-3.95v-3.4C7.018,70.034,5.5,68.233,5.5,64.9V40.45c0-1.7,0.467-3,1.4-3.9  c0.9-0.934,2.199-1.4,3.9-1.4h16.25V21c0-0.2,0.082-0.417,0.25-0.65L37.199,8.5c0.135-0.133,0.318-0.233,0.551-0.3L38,8.15h30.35  c0.668,0,1,0.333,1,1v26H89.1c1.734,0,3.066,0.466,4,1.4C94.033,37.45,94.5,38.75,94.5,40.45z M85.051,44.1  c0,0.267-0.084,0.5-0.25,0.7c-0.201,0.2-0.451,0.3-0.75,0.3H70.25c-0.266,0-0.5-0.1-0.699-0.3c-0.201-0.2-0.301-0.434-0.301-0.7  s0.1-0.5,0.301-0.7c0.199-0.2,0.434-0.3,0.699-0.3h13.801C84.717,43.1,85.051,43.433,85.051,44.1z M80.9,52.15  c0.166,0.2,0.25,0.433,0.25,0.7c0,0.667-0.334,1-1,1h-4.5c-0.268,0-0.5-0.1-0.701-0.3c-0.199-0.2-0.299-0.434-0.299-0.7  s0.1-0.5,0.299-0.7c0.201-0.2,0.434-0.3,0.701-0.3h4.5C80.449,51.85,80.699,51.95,80.9,52.15z M84,70.35H71.5L73.4,77H80.6  c1.168,0,2.033-0.267,2.6-0.8C83.734,75.667,84,74.833,84,73.7V70.35z M39,10.15l0.4,10.95c0.033,0.3-0.051,0.55-0.25,0.75  c-0.201,0.2-0.451,0.3-0.75,0.3h-9.35v13H67.35v-25H39z M28.801,69.65l-2.4,8.6v0.05L23.199,89.85h51.75l-7.299-25.5L30.1,64.85  l-1.299,4.75V69.65z M26.5,70.35H12.051v3.35c0,2.2,1.115,3.3,3.35,3.3h9.25L26.5,70.35z M63.551,76.7c0,0.666-0.334,1-1,1H35.25  c-0.301,0-0.533-0.1-0.699-0.3c-0.201-0.2-0.301-0.434-0.301-0.7s0.1-0.5,0.301-0.7c0.166-0.2,0.398-0.3,0.699-0.3h27.301  C63.217,75.7,63.551,76.034,63.551,76.7z M57.25,70.95c0,0.267-0.1,0.5-0.301,0.7c-0.199,0.2-0.432,0.3-0.699,0.3H36.301  c-0.268,0-0.5-0.1-0.701-0.3c-0.199-0.2-0.299-0.434-0.299-0.7s0.1-0.5,0.299-0.7c0.201-0.2,0.434-0.3,0.701-0.3H56.25  c0.268,0,0.5,0.1,0.699,0.3C57.15,70.45,57.25,70.683,57.25,70.95z M62.1,84.85H33.551c-0.268,0-0.5-0.101-0.701-0.301  c-0.199-0.199-0.299-0.434-0.299-0.699c0-0.268,0.1-0.5,0.299-0.7c0.201-0.2,0.434-0.3,0.701-0.3H62.1c0.668,0,1,0.333,1,1  c0,0.266-0.082,0.5-0.25,0.699C62.65,84.75,62.4,84.85,62.1,84.85z M37.4,20.15l-0.35-8.35L30.1,20.15H37.4z"></path></svg>